<?xml version='1.0' encoding='UTF-8' standalone='no'?>
<svg xmlns:xlink="http://www.w3.org/1999/xlink" height="314pt" width="418pt" viewBox="0 0 418 314" xmlns="http://www.w3.org/2000/svg">
 <title>gl2ps_renderer figure</title>
 <desc>
Creator: GL2PS 1.4.2, (C) 1999-2020 C. Geuzaine
For: Octave
CreationDate: Fri Jun 28 05:42:30 2024
</desc>
 <defs/>
 <polygon fill="#ffffff" points="0,0 418,0 418,314 0,314"/>
 <g>
  <polygon shape-rendering="crispEdges" fill="#ffffff" points="0,314 418,314 418,0 0,0"/>
  <clipPath id="cp00418314">
   <polygon points="0,314 418,314 418,0 0,0"/>
  </clipPath>
  <g clip-path="url(#cp00418314)">
   <polygon shape-rendering="crispEdges" fill="#ffffff" points="54.4343,275.546 378.946,275.546 378.946,23.5533 54.4343,23.5533"/>
   <polyline stroke-linecap="butt" fill="none" stroke-dasharray="16,0" stroke-opacity="0.15" points="54.4343,275.546 54.4343,23.5533" stroke="#262626" stroke-width="0.5" stroke-linejoin="miter"/>
   <polyline stroke-linecap="butt" fill="none" stroke-dasharray="16,0" stroke-opacity="0.15" points="135.562,275.546 135.562,23.5533" stroke="#262626" stroke-width="0.5" stroke-linejoin="miter"/>
   <polyline stroke-linecap="butt" fill="none" stroke-dasharray="16,0" stroke-opacity="0.15" points="216.69,275.546 216.69,23.5533" stroke="#262626" stroke-width="0.5" stroke-linejoin="miter"/>
   <polyline stroke-linecap="butt" fill="none" stroke-dasharray="16,0" stroke-opacity="0.15" points="297.818,275.546 297.818,23.5533" stroke="#262626" stroke-width="0.5" stroke-linejoin="miter"/>
   <polyline stroke-linecap="butt" fill="none" stroke-dasharray="16,0" stroke-opacity="0.15" points="378.946,275.546 378.946,23.5533" stroke="#262626" stroke-width="0.5" stroke-linejoin="miter"/>
   <polyline stroke-linecap="butt" fill="none" points="54.4343,275.546 54.4343,272.301" stroke="#262626" stroke-width="0.5" stroke-linejoin="miter"/>
   <polyline stroke-linecap="butt" fill="none" points="54.4343,23.5533 54.4343,26.7983" stroke="#262626" stroke-width="0.5" stroke-linejoin="miter"/>
   <polyline stroke-linecap="butt" fill="none" points="135.562,275.546 135.562,272.301" stroke="#262626" stroke-width="0.5" stroke-linejoin="miter"/>
   <polyline stroke-linecap="butt" fill="none" points="135.562,23.5533 135.562,26.7983" stroke="#262626" stroke-width="0.5" stroke-linejoin="miter"/>
   <polyline stroke-linecap="butt" fill="none" points="216.69,275.546 216.69,272.301" stroke="#262626" stroke-width="0.5" stroke-linejoin="miter"/>
   <polyline stroke-linecap="butt" fill="none" points="216.69,23.5533 216.69,26.7983" stroke="#262626" stroke-width="0.5" stroke-linejoin="miter"/>
   <polyline stroke-linecap="butt" fill="none" points="297.818,275.546 297.818,272.301" stroke="#262626" stroke-width="0.5" stroke-linejoin="miter"/>
   <polyline stroke-linecap="butt" fill="none" points="297.818,23.5533 297.818,26.7983" stroke="#262626" stroke-width="0.5" stroke-linejoin="miter"/>
   <polyline stroke-linecap="butt" fill="none" points="378.946,275.546 378.946,272.301" stroke="#262626" stroke-width="0.5" stroke-linejoin="miter"/>
   <polyline stroke-linecap="butt" fill="none" points="378.946,23.5533 378.946,26.7983" stroke="#262626" stroke-width="0.5" stroke-linejoin="miter"/>
   <text font-weight="normal" font-style="normal" font-family="FreeSans" font-size="14" xml:space="preserve" transform="translate(37.9343,297.046) rotate(-0,16.5,-11)">
    <tspan y="-0" fill="rgb(38,38,38)" x="0 5 13 17 25 ">-0.05</tspan>
   </text>
   <text font-weight="normal" font-style="normal" font-family="FreeSans" font-size="14" xml:space="preserve" transform="translate(131.562,297.046) rotate(-0,4,-11)">
    <tspan y="-0" fill="rgb(38,38,38)" x="0 ">0</tspan>
   </text>
   <text font-weight="normal" font-style="normal" font-family="FreeSans" font-size="14" xml:space="preserve" transform="translate(202.69,297.046) rotate(-0,14,-11)">
    <tspan y="-0" fill="rgb(38,38,38)" x="0 8 12 20 ">0.05</tspan>
   </text>
   <text font-weight="normal" font-style="normal" font-family="FreeSans" font-size="14" xml:space="preserve" transform="translate(287.818,297.046) rotate(-0,10,-11)">
    <tspan y="-0" fill="rgb(38,38,38)" x="0 8 12 ">0.1</tspan>
   </text>
   <text font-weight="normal" font-style="normal" font-family="FreeSans" font-size="14" xml:space="preserve" transform="translate(364.946,297.046) rotate(-0,14,-11)">
    <tspan y="-0" fill="rgb(38,38,38)" x="0 8 12 20 ">0.15</tspan>
   </text>
   <polyline stroke-linecap="butt" fill="none" stroke-dasharray="16,0" stroke-opacity="0.15" points="54.4343,275.546 378.946,275.546" stroke="#262626" stroke-width="0.5" stroke-linejoin="miter"/>
   <polyline stroke-linecap="butt" fill="none" stroke-dasharray="16,0" stroke-opacity="0.15" points="54.4343,233.547 378.946,233.547" stroke="#262626" stroke-width="0.5" stroke-linejoin="miter"/>
   <polyline stroke-linecap="butt" fill="none" stroke-dasharray="16,0" stroke-opacity="0.15" points="54.4343,191.549 378.946,191.549" stroke="#262626" stroke-width="0.5" stroke-linejoin="miter"/>
   <polyline stroke-linecap="butt" fill="none" stroke-dasharray="16,0" stroke-opacity="0.15" points="54.4343,149.55 378.946,149.55" stroke="#262626" stroke-width="0.5" stroke-linejoin="miter"/>
   <polyline stroke-linecap="butt" fill="none" stroke-dasharray="16,0" stroke-opacity="0.15" points="54.4343,107.551 378.946,107.551" stroke="#262626" stroke-width="0.5" stroke-linejoin="miter"/>
   <polyline stroke-linecap="butt" fill="none" stroke-dasharray="16,0" stroke-opacity="0.15" points="54.4343,65.5521 378.946,65.5521" stroke="#262626" stroke-width="0.5" stroke-linejoin="miter"/>
   <polyline stroke-linecap="butt" fill="none" stroke-dasharray="16,0" stroke-opacity="0.15" points="54.4343,23.5533 378.946,23.5533" stroke="#262626" stroke-width="0.5" stroke-linejoin="miter"/>
   <polyline stroke-linecap="butt" fill="none" points="54.4343,275.546 57.6745,275.546" stroke="#262626" stroke-width="0.5" stroke-linejoin="miter"/>
   <polyline stroke-linecap="butt" fill="none" points="378.946,275.546 375.706,275.546" stroke="#262626" stroke-width="0.5" stroke-linejoin="miter"/>
   <polyline stroke-linecap="butt" fill="none" points="54.4343,233.547 57.6745,233.547" stroke="#262626" stroke-width="0.5" stroke-linejoin="miter"/>
   <polyline stroke-linecap="butt" fill="none" points="378.946,233.547 375.706,233.547" stroke="#262626" stroke-width="0.5" stroke-linejoin="miter"/>
   <polyline stroke-linecap="butt" fill="none" points="54.4343,191.549 57.6745,191.549" stroke="#262626" stroke-width="0.5" stroke-linejoin="miter"/>
   <polyline stroke-linecap="butt" fill="none" points="378.946,191.549 375.706,191.549" stroke="#262626" stroke-width="0.5" stroke-linejoin="miter"/>
   <polyline stroke-linecap="butt" fill="none" points="54.4343,149.55 57.6745,149.55" stroke="#262626" stroke-width="0.5" stroke-linejoin="miter"/>
   <polyline stroke-linecap="butt" fill="none" points="378.946,149.55 375.706,149.55" stroke="#262626" stroke-width="0.5" stroke-linejoin="miter"/>
   <polyline stroke-linecap="butt" fill="none" points="54.4343,107.551 57.6745,107.551" stroke="#262626" stroke-width="0.5" stroke-linejoin="miter"/>
   <polyline stroke-linecap="butt" fill="none" points="378.946,107.551 375.706,107.551" stroke="#262626" stroke-width="0.5" stroke-linejoin="miter"/>
   <polyline stroke-linecap="butt" fill="none" points="54.4343,65.5521 57.6745,65.5521" stroke="#262626" stroke-width="0.5" stroke-linejoin="miter"/>
   <polyline stroke-linecap="butt" fill="none" points="378.946,65.5521 375.706,65.5521" stroke="#262626" stroke-width="0.5" stroke-linejoin="miter"/>
   <polyline stroke-linecap="butt" fill="none" points="54.4343,23.5533 57.6745,23.5533" stroke="#262626" stroke-width="0.5" stroke-linejoin="miter"/>
   <polyline stroke-linecap="butt" fill="none" points="378.946,23.5533 375.706,23.5533" stroke="#262626" stroke-width="0.5" stroke-linejoin="miter"/>
   <text font-weight="normal" font-style="normal" font-family="FreeSans" font-size="14" xml:space="preserve" transform="translate(22.4448,281.046) rotate(-0,25,-5.5)">
    <tspan y="-0" fill="rgb(38,38,38)" x="0 5 13 17 ">-0.1</tspan>
   </text>
   <text font-weight="normal" font-style="normal" font-family="FreeSans" font-size="14" xml:space="preserve" transform="translate(39.4448,239.047) rotate(-0,8,-5.5)">
    <tspan y="-0" fill="rgb(38,38,38)" x="0 ">0</tspan>
   </text>
   <text font-weight="normal" font-style="normal" font-family="FreeSans" font-size="14" xml:space="preserve" transform="translate(27.4448,197.049) rotate(-0,20,-5.5)">
    <tspan y="-0" fill="rgb(38,38,38)" x="0 8 12 ">0.1</tspan>
   </text>
   <text font-weight="normal" font-style="normal" font-family="FreeSans" font-size="14" xml:space="preserve" transform="translate(27.4448,155.05) rotate(-0,20,-5.5)">
    <tspan y="-0" fill="rgb(38,38,38)" x="0 8 12 ">0.2</tspan>
   </text>
   <text font-weight="normal" font-style="normal" font-family="FreeSans" font-size="14" xml:space="preserve" transform="translate(27.4448,113.051) rotate(-0,20,-5.5)">
    <tspan y="-0" fill="rgb(38,38,38)" x="0 8 12 ">0.3</tspan>
   </text>
   <text font-weight="normal" font-style="normal" font-family="FreeSans" font-size="14" xml:space="preserve" transform="translate(27.4448,71.0521) rotate(-0,20,-5.5)">
    <tspan y="-0" fill="rgb(38,38,38)" x="0 8 12 ">0.4</tspan>
   </text>
   <text font-weight="normal" font-style="normal" font-family="FreeSans" font-size="14" xml:space="preserve" transform="translate(27.4448,29.0533) rotate(-0,20,-5.5)">
    <tspan y="-0" fill="rgb(38,38,38)" x="0 8 12 ">0.5</tspan>
   </text>
   <polyline stroke-linecap="square" fill="none" stroke-dasharray="16,0" points="54.4343,275.546 378.946,275.546" stroke="#262626" stroke-width="0.5" stroke-linejoin="miter"/>
   <polyline stroke-linecap="square" fill="none" stroke-dasharray="16,0" points="54.4343,23.5533 378.946,23.5533" stroke="#262626" stroke-width="0.5" stroke-linejoin="miter"/>
   <polyline stroke-linecap="square" fill="none" stroke-dasharray="16,0" points="54.4343,275.546 54.4343,23.5533" stroke="#262626" stroke-width="0.5" stroke-linejoin="miter"/>
   <polyline stroke-linecap="square" fill="none" stroke-dasharray="16,0" points="378.946,275.546 378.946,23.5533" stroke="#262626" stroke-width="0.5" stroke-linejoin="miter"/>
   <text font-weight="normal" font-style="normal" font-family="FreeSans" font-size="15.4" xml:space="preserve" transform="translate(208.69,314.046) rotate(-0,8,-12)">
    <tspan y="-0" fill="rgb(38,38,38)" x="0 7 ">z1</tspan>
   </text>
   <text font-weight="normal" font-style="normal" font-family="FreeSans" font-size="15.4" xml:space="preserve" transform="translate(9.4448,149.55) rotate(-90,8,0)">
    <tspan y="-0" fill="rgb(38,38,38)" x="0 7 ">z2</tspan>
   </text>
   <polyline stroke-linecap="butt" fill="none" points="135.562,233.547 135.246,237.58 134.333,241.284 132.872,244.664 130.914,247.725 128.506,250.473 125.698,252.912 122.537,255.047 119.069,256.879 115.341,258.413 111.399,259.65 107.289,260.594 103.055,261.244 98.7436,261.603 94.399,261.671 90.0665,261.448 85.791,260.933 81.6176,260.126 77.5916,259.025 73.7584,257.63 70.1638,255.937 66.854,253.943 63.8758,251.646 61.2761,249.042 59.1028,246.127 57.4043,242.896 56.2299,239.344 55.6295,235.465 55.6542,231.254 56.3559,226.702 57.7878,221.803 60.0039,216.55 63.0598,210.934 67.0123,204.945 71.9196,198.574 77.8416,191.812 84.8396,184.646 92.9767,177.066 102.318,169.06 112.93,160.615 124.882,151.717 138.245,142.352 153.093,132.505 169.5,122.16 187.546,111.301 207.31,99.9101 228.877,87.9695 252.333,75.4599 277.767,62.3613 305.272,48.6527 334.945,34.3123" stroke="#0071bc" stroke-width="0.5" stroke-linejoin="round"/>
   <polyline stroke-linecap="round" fill="none" points="138.562,233.547 137.989,235.311 136.489,236.401 134.635,236.401 133.135,235.311 132.562,233.547 133.135,231.784 134.635,230.694 136.489,230.694 137.989,231.784 138.562,233.547" stroke="#d85218" stroke-width="0.5" stroke-linejoin="round"/>
   <polyline stroke-linecap="round" fill="none" points="138.248,237.583 137.676,239.346 136.176,240.436 134.321,240.436 132.821,239.346 132.248,237.583 132.821,235.819 134.321,234.729 136.176,234.729 137.676,235.819 138.248,237.583" stroke="#d85218" stroke-width="0.5" stroke-linejoin="round"/>
   <polyline stroke-linecap="round" fill="none" points="137.337,241.288 136.764,243.051 135.264,244.141 133.41,244.141 131.91,243.051 131.337,241.288 131.91,239.525 133.41,238.435 135.264,238.435 136.764,239.525 137.337,241.288" stroke="#d85218" stroke-width="0.5" stroke-linejoin="round"/>
   <polyline stroke-linecap="round" fill="none" points="135.877,244.67 135.305,246.433 133.805,247.523 131.95,247.523 130.45,246.433 129.877,244.67 130.45,242.906 131.95,241.816 133.805,241.816 135.305,242.906 135.877,244.67" stroke="#d85218" stroke-width="0.5" stroke-linejoin="round"/>
   <polyline stroke-linecap="round" fill="none" points="133.92,247.733 133.348,249.496 131.848,250.586 129.993,250.586 128.493,249.496 127.92,247.733 128.493,245.969 129.993,244.88 131.848,244.88 133.348,245.969 133.92,247.733" stroke="#d85218" stroke-width="0.5" stroke-linejoin="round"/>
   <polyline stroke-linecap="round" fill="none" points="131.514,250.483 130.942,252.246 129.442,253.336 127.587,253.336 126.087,252.246 125.514,250.483 126.087,248.719 127.587,247.629 129.442,247.629 130.942,248.719 131.514,250.483" stroke="#d85218" stroke-width="0.5" stroke-linejoin="round"/>
   <polyline stroke-linecap="round" fill="none" points="128.708,252.923 128.135,254.687 126.635,255.776 124.781,255.776 123.281,254.687 122.708,252.923 123.281,251.16 124.781,250.07 126.635,250.07 128.135,251.16 128.708,252.923" stroke="#d85218" stroke-width="0.5" stroke-linejoin="round"/>
   <polyline stroke-linecap="round" fill="none" points="125.547,255.059 124.974,256.822 123.474,257.912 121.62,257.912 120.12,256.822 119.547,255.059 120.12,253.295 121.62,252.206 123.474,252.206 124.974,253.295 125.547,255.059" stroke="#d85218" stroke-width="0.5" stroke-linejoin="round"/>
   <polyline stroke-linecap="round" fill="none" points="122.08,256.893 121.507,258.656 120.007,259.746 118.153,259.746 116.653,258.656 116.08,256.893 116.653,255.129 118.153,254.039 120.007,254.039 121.507,255.129 122.08,256.893" stroke="#d85218" stroke-width="0.5" stroke-linejoin="round"/>
   <polyline stroke-linecap="round" fill="none" points="118.353,258.428 117.78,260.191 116.28,261.281 114.426,261.281 112.926,260.191 112.353,258.428 112.926,256.664 114.426,255.574 116.28,255.574 117.78,256.664 118.353,258.428" stroke="#d85218" stroke-width="0.5" stroke-linejoin="round"/>
   <polyline stroke-linecap="round" fill="none" points="114.412,259.666 113.839,261.43 112.339,262.519 110.485,262.519 108.985,261.43 108.412,259.666 108.985,257.903 110.485,256.813 112.339,256.813 113.839,257.903 114.412,259.666" stroke="#d85218" stroke-width="0.5" stroke-linejoin="round"/>
   <polyline stroke-linecap="round" fill="none" points="110.302,260.611 109.729,262.374 108.229,263.464 106.375,263.464 104.875,262.374 104.302,260.611 104.875,258.847 106.375,257.757 108.229,257.757 109.729,258.847 110.302,260.611" stroke="#d85218" stroke-width="0.5" stroke-linejoin="round"/>
   <polyline stroke-linecap="round" fill="none" points="106.07,261.262 105.497,263.025 103.997,264.115 102.143,264.115 100.643,263.025 100.07,261.262 100.643,259.499 102.143,258.409 103.997,258.409 105.497,259.499 106.07,261.262" stroke="#d85218" stroke-width="0.5" stroke-linejoin="round"/>
   <polyline stroke-linecap="round" fill="none" points="101.759,261.622 101.186,263.385 99.6858,264.475 97.8317,264.475 96.3317,263.385 95.7588,261.622 96.3317,259.858 97.8317,258.768 99.6858,258.768 101.186,259.858 101.759,261.622" stroke="#d85218" stroke-width="0.5" stroke-linejoin="round"/>
   <polyline stroke-linecap="round" fill="none" points="97.415,261.69 96.8421,263.453 95.3421,264.543 93.488,264.543 91.988,263.453 91.415,261.69 91.988,259.927 93.488,258.837 95.3421,258.837 96.8421,259.927 97.415,261.69" stroke="#d85218" stroke-width="0.5" stroke-linejoin="round"/>
   <polyline stroke-linecap="round" fill="none" points="93.0834,261.467 92.5104,263.231 91.0104,264.32 89.1563,264.32 87.6563,263.231 87.0834,261.467 87.6563,259.704 89.1563,258.614 91.0104,258.614 92.5104,259.704 93.0834,261.467" stroke="#d85218" stroke-width="0.5" stroke-linejoin="round"/>
   <polyline stroke-linecap="round" fill="none" points="88.8088,260.953 88.2359,262.716 86.7359,263.806 84.8818,263.806 83.3818,262.716 82.8088,260.953 83.3818,259.19 84.8818,258.1 86.7359,258.1 88.2359,259.19 88.8088,260.953" stroke="#d85218" stroke-width="0.5" stroke-linejoin="round"/>
   <polyline stroke-linecap="round" fill="none" points="84.6364,260.146 84.0635,261.91 82.5635,263 80.7094,263 79.2094,261.91 78.6364,260.146 79.2094,258.383 80.7094,257.293 82.5635,257.293 84.0635,258.383 84.6364,260.146" stroke="#d85218" stroke-width="0.5" stroke-linejoin="round"/>
   <polyline stroke-linecap="round" fill="none" points="80.6116,259.046 80.0386,260.81 78.5386,261.899 76.6845,261.899 75.1845,260.81 74.6116,259.046 75.1845,257.283 76.6845,256.193 78.5386,256.193 80.0386,257.283 80.6116,259.046" stroke="#d85218" stroke-width="0.5" stroke-linejoin="round"/>
   <polyline stroke-linecap="round" fill="none" points="76.7797,257.651 76.2067,259.414 74.7067,260.504 72.8526,260.504 71.3526,259.414 70.7797,257.651 71.3526,255.887 72.8526,254.798 74.7067,254.798 76.2067,255.887 76.7797,257.651" stroke="#d85218" stroke-width="0.5" stroke-linejoin="round"/>
   <polyline stroke-linecap="round" fill="none" points="73.1866,255.958 72.6136,257.721 71.1136,258.811 69.2595,258.811 67.7595,257.721 67.1866,255.958 67.7595,254.194 69.2595,253.104 71.1136,253.104 72.6136,254.194 73.1866,255.958" stroke="#d85218" stroke-width="0.5" stroke-linejoin="round"/>
   <polyline stroke-linecap="round" fill="none" points="69.8785,253.964 69.3055,255.728 67.8055,256.817 65.9514,256.817 64.4514,255.728 63.8785,253.964 64.4514,252.201 65.9514,251.111 67.8055,251.111 69.3055,252.201 69.8785,253.964" stroke="#d85218" stroke-width="0.5" stroke-linejoin="round"/>
   <polyline stroke-linecap="round" fill="none" points="66.902,251.667 66.3291,253.431 64.8291,254.52 62.975,254.52 61.475,253.431 60.9021,251.667 61.475,249.904 62.975,248.814 64.8291,248.814 66.3291,249.904 66.902,251.667" stroke="#d85218" stroke-width="0.5" stroke-linejoin="round"/>
   <polyline stroke-linecap="round" fill="none" points="64.3045,249.063 63.7315,250.827 62.2315,251.916 60.3774,251.916 58.8774,250.827 58.3045,249.063 58.8774,247.3 60.3774,246.21 62.2315,246.21 63.7315,247.3 64.3045,249.063" stroke="#d85218" stroke-width="0.5" stroke-linejoin="round"/>
   <polyline stroke-linecap="round" fill="none" points="62.1335,246.148 61.5606,247.911 60.0605,249.001 58.2064,249.001 56.7064,247.911 56.1335,246.148 56.7064,244.384 58.2064,243.295 60.0605,243.295 61.5606,244.384 62.1335,246.148" stroke="#d85218" stroke-width="0.5" stroke-linejoin="round"/>
   <polyline stroke-linecap="round" fill="none" points="60.4376,242.916 59.8647,244.68 58.3647,245.77 56.5106,245.77 55.0106,244.68 54.4377,242.916 55.0106,241.153 56.5106,240.063 58.3647,240.063 59.8647,241.153 60.4376,242.916" stroke="#d85218" stroke-width="0.5" stroke-linejoin="round"/>
   <polyline stroke-linecap="round" fill="none" points="59.2662,239.364 58.6932,241.127 57.1932,242.217 55.3391,242.217 53.8391,241.127 53.2662,239.364 53.8391,237.6 55.3391,236.511 57.1932,236.511 58.6932,237.6 59.2662,239.364" stroke="#d85218" stroke-width="0.5" stroke-linejoin="round"/>
   <polyline stroke-linecap="round" fill="none" points="58.6691,235.484 58.0961,237.248 56.5961,238.338 54.742,238.338 53.242,237.248 52.6691,235.484 53.242,233.721 54.742,232.631 56.5961,232.631 58.0961,233.721 58.6691,235.484" stroke="#d85218" stroke-width="0.5" stroke-linejoin="round"/>
   <polyline stroke-linecap="round" fill="none" points="58.6974,231.272 58.1245,233.035 56.6245,234.125 54.7704,234.125 53.2703,233.035 52.6974,231.272 53.2703,229.508 54.7704,228.419 56.6245,228.419 58.1245,229.508 58.6974,231.272" stroke="#d85218" stroke-width="0.5" stroke-linejoin="round"/>
   <polyline stroke-linecap="round" fill="none" points="59.4031,226.72 58.8302,228.483 57.3302,229.573 55.4761,229.573 53.9761,228.483 53.4032,226.72 53.9761,224.956 55.4761,223.866 57.3302,223.866 58.8302,224.956 59.4031,226.72" stroke="#d85218" stroke-width="0.5" stroke-linejoin="round"/>
   <polyline stroke-linecap="round" fill="none" points="60.8394,221.82 60.2664,223.583 58.7664,224.673 56.9123,224.673 55.4123,223.583 54.8394,221.82 55.4123,220.057 56.9123,218.967 58.7664,218.967 60.2664,220.057 60.8394,221.82" stroke="#d85218" stroke-width="0.5" stroke-linejoin="round"/>
   <polyline stroke-linecap="round" fill="none" points="63.0603,216.566 62.4874,218.329 60.9874,219.419 59.1333,219.419 57.6333,218.329 57.0603,216.566 57.6333,214.802 59.1333,213.713 60.9874,213.713 62.4874,214.802 63.0603,216.566" stroke="#d85218" stroke-width="0.5" stroke-linejoin="round"/>
   <polyline stroke-linecap="round" fill="none" points="66.1215,210.948 65.5486,212.711 64.0486,213.801 62.1945,213.801 60.6945,212.711 60.1215,210.948 60.6945,209.185 62.1945,208.095 64.0486,208.095 65.5486,209.185 66.1215,210.948" stroke="#d85218" stroke-width="0.5" stroke-linejoin="round"/>
   <polyline stroke-linecap="round" fill="none" points="70.0798,204.958 69.5069,206.721 68.0069,207.811 66.1527,207.811 64.6527,206.721 64.0798,204.958 64.6527,203.195 66.1527,202.105 68.0069,202.105 69.5069,203.195 70.0798,204.958" stroke="#d85218" stroke-width="0.5" stroke-linejoin="round"/>
   <polyline stroke-linecap="round" fill="none" points="74.9934,198.586 74.4205,200.349 72.9205,201.439 71.0664,201.439 69.5664,200.349 68.9935,198.586 69.5664,196.823 71.0664,195.733 72.9205,195.733 74.4205,196.823 74.9934,198.586" stroke="#d85218" stroke-width="0.5" stroke-linejoin="round"/>
   <polyline stroke-linecap="round" fill="none" points="80.9223,191.822 80.3493,193.585 78.8493,194.675 76.9952,194.675 75.4952,193.585 74.9223,191.822 75.4952,190.059 76.9952,188.969 78.8493,188.969 80.3493,190.059 80.9223,191.822" stroke="#d85218" stroke-width="0.5" stroke-linejoin="round"/>
   <polyline stroke-linecap="round" fill="none" points="87.9277,184.655 87.3548,186.418 85.8548,187.508 84.0007,187.508 82.5007,186.418 81.9277,184.655 82.5007,182.892 84.0007,181.802 85.8548,181.802 87.3548,182.892 87.9277,184.655" stroke="#d85218" stroke-width="0.5" stroke-linejoin="round"/>
   <polyline stroke-linecap="round" fill="none" points="96.0729,177.074 95.5,178.837 94,179.927 92.1459,179.927 90.6459,178.837 90.0729,177.074 90.6459,175.31 92.1459,174.221 94,174.221 95.5,175.31 96.0729,177.074" stroke="#d85218" stroke-width="0.5" stroke-linejoin="round"/>
   <polyline stroke-linecap="round" fill="none" points="105.423,169.066 104.85,170.829 103.35,171.919 101.496,171.919 99.9958,170.829 99.4229,169.066 99.9958,167.302 101.496,166.213 103.35,166.213 104.85,167.302 105.423,169.066" stroke="#d85218" stroke-width="0.5" stroke-linejoin="round"/>
   <polyline stroke-linecap="round" fill="none" points="116.045,160.619 115.472,162.382 113.972,163.472 112.117,163.472 110.617,162.382 110.045,160.619 110.617,158.855 112.117,157.765 113.972,157.765 115.472,158.855 116.045,160.619" stroke="#d85218" stroke-width="0.5" stroke-linejoin="round"/>
   <polyline stroke-linecap="round" fill="none" points="128.007,151.718 127.434,153.482 125.934,154.572 124.08,154.572 122.58,153.482 122.007,151.718 122.58,149.955 124.08,148.865 125.934,148.865 127.434,149.955 128.007,151.718" stroke="#d85218" stroke-width="0.5" stroke-linejoin="round"/>
   <polyline stroke-linecap="round" fill="none" points="141.381,142.351 140.808,144.115 139.308,145.204 137.454,145.204 135.954,144.115 135.381,142.351 135.954,140.588 137.454,139.498 139.308,139.498 140.808,140.588 141.381,142.351" stroke="#d85218" stroke-width="0.5" stroke-linejoin="round"/>
   <polyline stroke-linecap="round" fill="none" points="156.24,132.502 155.667,134.265 154.167,135.355 152.313,135.355 150.813,134.265 150.24,132.502 150.813,130.739 152.313,129.649 154.167,129.649 155.667,130.739 156.24,132.502" stroke="#d85218" stroke-width="0.5" stroke-linejoin="round"/>
   <polyline stroke-linecap="round" fill="none" points="172.66,122.155 172.087,123.918 170.587,125.008 168.732,125.008 167.232,123.918 166.66,122.155 167.232,120.391 168.732,119.301 170.587,119.301 172.087,120.391 172.66,122.155" stroke="#d85218" stroke-width="0.5" stroke-linejoin="round"/>
   <polyline stroke-linecap="round" fill="none" points="190.718,111.293 190.145,113.056 188.645,114.146 186.791,114.146 185.291,113.056 184.718,111.293 185.291,109.53 186.791,108.44 188.645,108.44 190.145,109.53 190.718,111.293" stroke="#d85218" stroke-width="0.5" stroke-linejoin="round"/>
   <polyline stroke-linecap="round" fill="none" points="210.497,99.8996 209.924,101.663 208.424,102.753 206.57,102.753 205.07,101.663 204.497,99.8996 205.07,98.1363 206.57,97.0465 208.424,97.0465 209.924,98.1363 210.497,99.8996" stroke="#d85218" stroke-width="0.5" stroke-linejoin="round"/>
   <polyline stroke-linecap="round" fill="none" points="232.079,87.9562 231.506,89.7196 230.006,90.8094 228.152,90.8094 226.652,89.7196 226.079,87.9562 226.652,86.1928 228.152,85.103 230.006,85.103 231.506,86.1928 232.079,87.9562" stroke="#d85218" stroke-width="0.5" stroke-linejoin="round"/>
   <polyline stroke-linecap="round" fill="none" points="255.551,75.4436 254.978,77.207 253.478,78.2968 251.624,78.2968 250.124,77.207 249.551,75.4436 250.124,73.6803 251.624,72.5905 253.478,72.5905 254.978,73.6803 255.551,75.4436" stroke="#d85218" stroke-width="0.5" stroke-linejoin="round"/>
   <polyline stroke-linecap="round" fill="none" points="281.003,62.3419 280.43,64.1052 278.93,65.195 277.076,65.195 275.576,64.1052 275.003,62.3419 275.576,60.5785 277.076,59.4887 278.93,59.4887 280.43,60.5785 281.003,62.3419" stroke="#d85218" stroke-width="0.5" stroke-linejoin="round"/>
   <polyline stroke-linecap="round" fill="none" points="308.526,48.63 307.953,50.3933 306.453,51.4832 304.599,51.4832 303.099,50.3933 302.526,48.63 303.099,46.8666 304.599,45.7768 306.453,45.7768 307.953,46.8666 308.526,48.63" stroke="#d85218" stroke-width="0.5" stroke-linejoin="round"/>
   <polyline stroke-linecap="round" fill="none" points="338.218,34.286 337.645,36.0494 336.145,37.1392 334.291,37.1392 332.791,36.0494 332.218,34.286 332.791,32.5227 334.291,31.4329 336.145,31.4329 337.645,32.5227 338.218,34.286" stroke="#d85218" stroke-width="0.5" stroke-linejoin="round"/>
  </g>
  <clipPath id="cp00418314">
   <polygon points="0,314 418,314 418,0 0,0"/>
  </clipPath>
  <g clip-path="url(#cp00418314)">
   <polygon shape-rendering="crispEdges" fill="#ffffff" points="66.2635,87.9044 208.581,87.9044 208.581,35.3826 66.2635,35.3826"/>
   <polyline stroke-linecap="square" fill="none" stroke-dasharray="16,0" points="66.2635,87.9044 208.581,87.9044" stroke="#262626" stroke-width="0.5" stroke-linejoin="miter"/>
   <polyline stroke-linecap="square" fill="none" stroke-dasharray="16,0" points="66.2635,35.3826 208.581,35.3826" stroke="#262626" stroke-width="0.5" stroke-linejoin="miter"/>
   <polyline stroke-linecap="square" fill="none" stroke-dasharray="16,0" points="66.2635,87.9044 66.2635,35.3826" stroke="#262626" stroke-width="0.5" stroke-linejoin="miter"/>
   <polyline stroke-linecap="square" fill="none" stroke-dasharray="16,0" points="208.581,87.9044 208.581,35.3826" stroke="#262626" stroke-width="0.5" stroke-linejoin="miter"/>
   <polyline stroke-linecap="butt" fill="none" points="72.1782,49.9917 101.751,49.9917" stroke="#0071bc" stroke-width="0.5" stroke-linejoin="round"/>
   <text font-weight="normal" font-style="normal" font-family="FreeSans" font-size="12.6" xml:space="preserve" transform="translate(107.666,56.9917) rotate(-0,-0,-7)">
    <tspan y="-3" fill="rgb(0,0,0)" x="0 7 14 21 24 30 34 37 43 50 ">analytical</tspan>
   </text>
   <polyline stroke-linecap="round" fill="none" points="89.9647,73.2953 89.3918,75.0587 87.8918,76.1485 86.0377,76.1485 84.5377,75.0587 83.9647,73.2953 84.5377,71.532 86.0377,70.4422 87.8918,70.4422 89.3918,71.532 89.9647,73.2953" stroke="#d85218" stroke-width="0.5" stroke-linejoin="round"/>
   <text font-weight="normal" font-style="normal" font-family="FreeSans" font-size="12.6" xml:space="preserve" transform="translate(107.666,80.2953) rotate(-0,-0,-7)">
    <tspan y="-3" fill="rgb(0,0,0)" x="0 10 17 20 24 27 34 37 44 47 53 60 67 74 78 81 88 ">multiple shooting</tspan>
   </text>
  </g>
 </g>
</svg>
